<?xml version="1.0" standalone="no"?>
<svg viewBox="0 0 200 200" xmlns="http://www.w3.org/2000/svg">
  <path fill="#90CAF9" d="M18.5,-35.5C26.6,-27.3,37.7,-27.7,43,-23.3C48.4,-18.8,48,-9.4,41.9,-3.5C35.8,2.4,24,4.7,21.3,13.6C18.5,22.5,24.6,37.9,22.6,49.1C20.5,60.2,10.3,67.1,2.8,62.2C-4.6,57.3,-9.3,40.7,-19.5,34.3C-29.7,27.9,-45.5,31.6,-59,27.6C-72.6,23.6,-83.9,11.8,-84.2,-0.1C-84.4,-12.1,-73.5,-24.1,-65.9,-38.5C-58.3,-52.8,-54,-69.5,-43.6,-76.4C-33.2,-83.3,-16.6,-80.4,-5.7,-70.5C5.2,-60.6,10.3,-43.7,18.5,-35.5Z" transform="translate(100 100)" />
</svg>
