<?xml version="1.0" standalone="no"?>
<svg viewBox="0 0 200 200" xmlns="http://www.w3.org/2000/svg">
  <path fill="#90CAF9" d="M15,-29.9C23.4,-21.1,36.9,-25.1,46.7,-22.3C56.5,-19.4,62.5,-9.7,67.1,2.7C71.7,15,74.8,30,71.4,43.9C68,57.7,58,70.5,45,71.3C32,72.2,16,61.2,6.4,50.2C-3.3,39.2,-6.6,28.1,-20,27.5C-33.4,26.9,-56.9,36.6,-62.8,33.8C-68.7,30.9,-57,15.5,-56.6,0.3C-56.1,-15,-66.9,-29.9,-62.5,-35.3C-58.1,-40.7,-38.4,-36.5,-25.4,-42.7C-12.5,-48.8,-6.2,-65.3,-1.5,-62.7C3.3,-60.2,6.6,-38.7,15,-29.9Z" transform="translate(100 100)" />
</svg>
