<?xml version="1.0" standalone="no"?>
<svg viewBox="0 0 200 200" xmlns="http://www.w3.org/2000/svg">
  <path fill="#FF0066" d="M34,-59.1C40.8,-54.9,41,-39.3,47.6,-27.6C54.2,-15.8,67.2,-7.9,69.5,1.3C71.8,10.6,63.4,21.2,50.2,21.4C36.9,21.5,18.7,11.3,9.6,8.9C0.4,6.4,0.2,11.9,-2.2,15.8C-4.7,19.6,-9.4,22,-15.4,22.6C-21.5,23.2,-28.9,22.1,-37.2,18C-45.4,14,-54.6,7,-58,-2C-61.5,-11,-59.3,-22,-52.5,-28.7C-45.8,-35.4,-34.5,-37.8,-25,-40.6C-15.5,-43.3,-7.8,-46.3,2.9,-51.3C13.5,-56.4,27.1,-63.4,34,-59.1Z" transform="translate(100 100)" />
</svg>
