<svg class="animated" id="freepik_stories-training-at-home" xmlns="http://www.w3.org/2000/svg" xmlns:xlink="http://www.w3.org/1999/xlink" viewBox="0 0 500 500" version="1.1" xmlns:svgjs="http://svgjs.com/svgjs"><style>svg#freepik_stories-training-at-home:not(.animated) .animable {opacity: 0;}svg#freepik_stories-training-at-home.animated #freepik--background-simple--inject-389 {animation: 1s 1 forwards cubic-bezier(.36,-0.01,.5,1.38) slideLeft;animation-delay: 0s;}svg#freepik_stories-training-at-home.animated #freepik--Shelf--inject-389 {animation: 1s 1 forwards cubic-bezier(.36,-0.01,.5,1.38) slideRight;animation-delay: 0s;}svg#freepik_stories-training-at-home.animated #freepik--Couch--inject-389 {animation: 1s 1 forwards cubic-bezier(.36,-0.01,.5,1.38) lightSpeedLeft;animation-delay: 0s;}svg#freepik_stories-training-at-home.animated #freepik--Chair--inject-389 {animation: 1s 1 forwards cubic-bezier(.36,-0.01,.5,1.38) zoomOut;animation-delay: 0s;}svg#freepik_stories-training-at-home.animated #freepik--Character--inject-389 {animation: 1.5s 1 forwards cubic-bezier(.36,-0.01,.5,1.38) slideLeft,6s Infinite  linear shake;animation-delay: 0s,1.5s;}            @keyframes slideLeft {                0% {                    opacity: 0;                    transform: translateX(-30px);                }                100% {                    opacity: 1;                    transform: translateX(0);                }            }                    @keyframes slideRight {                0% {                    opacity: 0;                    transform: translateX(30px);                }                100% {                    opacity: 1;                    transform: translateX(0);                }            }                    @keyframes lightSpeedLeft {              from {                transform: translate3d(-50%, 0, 0) skewX(20deg);                opacity: 0;              }              60% {                transform: skewX(-10deg);                opacity: 1;              }              80% {                transform: skewX(2deg);              }              to {                opacity: 1;                transform: translate3d(0, 0, 0);              }            }                    @keyframes zoomOut {                0% {                    opacity: 0;                    transform: scale(1.5);                }                100% {                    opacity: 1;                    transform: scale(1);                }            }                    @keyframes shake {                10%, 90% {                    transform: translate3d(-1px, 0, 0);                  }                  20%, 80% {                    transform: translate3d(2px, 0, 0);                  }                  30%, 50%, 70% {                    transform: translate3d(-4px, 0, 0);                  }                  40%, 60% {                    transform: translate3d(4px, 0, 0);                  }            }        </style><g id="freepik--background-simple--inject-389" class="animable" style="transform-origin: 258.827px 245.622px;"><path d="M131.7,136.15S79.86,186.44,64.44,243.43s6.86,116.84,59.1,150,122,4.38,191.3,13.82,133.62-17.51,142.2-87-41.58-78.44-71.82-146S256.52,24.81,131.7,136.15Z" style="fill: rgb(144, 202, 249); transform-origin: 258.827px 245.622px;" id="elu6qydu3dack" class="animable"></path><g id="el15p4cy809g5"><path d="M131.7,136.15S79.86,186.44,64.44,243.43s6.86,116.84,59.1,150,122,4.38,191.3,13.82,133.62-17.51,142.2-87-41.58-78.44-71.82-146S256.52,24.81,131.7,136.15Z" style="fill: rgb(255, 255, 255); opacity: 0.7; transform-origin: 258.827px 245.622px;" class="animable"></path></g></g><g id="freepik--Shelf--inject-389" class="animable" style="transform-origin: 216.4px 147.06px;"><g id="elxbc1xvs1myh"><polygon points="147.68 132.05 147.68 135.91 145.55 212.45 153.61 219.43 197.88 219.43 197.88 144.24 287.25 144.24 285.13 129.43 147.68 132.05" style="opacity: 0.2; transform-origin: 216.4px 174.43px;" class="animable"></polygon></g><rect x="145.55" y="133.28" width="50.21" height="79.17" style="fill: rgb(255, 255, 255); stroke: rgb(38, 50, 56); stroke-linecap: round; stroke-linejoin: round; transform-origin: 170.655px 172.865px;" id="elgl08kp5tvn" class="animable"></rect><rect x="148.62" y="136.53" width="44.07" height="72.67" style="fill: rgb(38, 50, 56); stroke: rgb(38, 50, 56); stroke-linecap: round; stroke-linejoin: round; transform-origin: 170.655px 172.865px;" id="el1kdvxnk3dzd" class="animable"></rect><path d="M164.86,201.47a6.67,6.67,0,0,1-13.34,0c0-3.68,3-13.52,6.67-13.52S164.86,197.79,164.86,201.47Z" style="fill: rgb(255, 255, 255); stroke: rgb(38, 50, 56); stroke-linecap: round; stroke-linejoin: round; transform-origin: 158.19px 198.045px;" id="elqw8q9bcbl6g" class="animable"></path><path d="M164.86,201.47a18.91,18.91,0,0,0-.69-4.32,3.1,3.1,0,0,1-.33.32,18.42,18.42,0,0,0-2,3.43s-1,2-1.65,1.52a50.69,50.69,0,0,0-5.08-3,20.51,20.51,0,0,1-3-1.83,18.43,18.43,0,0,0-.59,3.93,6.67,6.67,0,0,0,13.34,0Z" style="fill: rgb(144, 202, 249); stroke: rgb(38, 50, 56); stroke-linecap: round; stroke-linejoin: round; transform-origin: 158.19px 202.67px;" id="el03bqei38ynoi" class="animable"></path><path d="M183.68,201.47a6.67,6.67,0,0,1-13.33,0c0-3.68,3-13.52,6.67-13.52S183.68,197.79,183.68,201.47Z" style="fill: rgb(255, 255, 255); stroke: rgb(38, 50, 56); stroke-linecap: round; stroke-linejoin: round; transform-origin: 177.015px 197.916px;" id="elkndt9dgxzyf" class="animable"></path><path d="M183.68,201.47a18.81,18.81,0,0,0-.68-4.32,4.48,4.48,0,0,1-.33.32,17.88,17.88,0,0,0-2,3.43s-1,2-1.66,1.52a48.91,48.91,0,0,0-5.07-3,20.51,20.51,0,0,1-3-1.83,17.81,17.81,0,0,0-.59,3.93,6.67,6.67,0,0,0,13.33,0Z" style="fill: rgb(144, 202, 249); stroke: rgb(38, 50, 56); stroke-linecap: round; stroke-linejoin: round; transform-origin: 177.015px 202.541px;" id="elg0xlhwqkcec" class="animable"></path><polygon points="171.94 172.07 176.25 181.82 170.12 181.82 168.31 173.43 171.94 172.07" style="fill: rgb(255, 255, 255); stroke: rgb(38, 50, 56); stroke-linecap: round; stroke-linejoin: round; transform-origin: 172.28px 176.945px;" id="elc59chvmm4mh" class="animable"></polygon><polygon points="173.53 165.26 161.28 165.26 156.51 181.6 168.76 181.6 173.53 165.26" style="fill: rgb(255, 255, 255); stroke: rgb(38, 50, 56); stroke-linecap: round; stroke-linejoin: round; transform-origin: 165.02px 173.43px;" id="elkovnjvpw46a" class="animable"></polygon><polygon points="171.87 166.85 162.01 166.85 158.17 180.01 168.03 180.01 171.87 166.85" style="fill: rgb(255, 255, 255); stroke: rgb(38, 50, 56); stroke-linecap: round; stroke-linejoin: round; transform-origin: 165.02px 173.43px;" id="elq30ha215wzq" class="animable"></polygon><rect x="166.72" y="140.54" width="10.43" height="17.92" style="fill: rgb(255, 255, 255); stroke: rgb(38, 50, 56); stroke-linecap: round; stroke-linejoin: round; transform-origin: 171.935px 149.5px;" id="elrx2pj5jl7be" class="animable"></rect><rect x="178.52" y="147.57" width="6.34" height="10.89" style="fill: rgb(255, 255, 255); stroke: rgb(38, 50, 56); stroke-linecap: round; stroke-linejoin: round; transform-origin: 181.69px 153.015px;" id="el3am8o2ojbq4" class="animable"></rect><polygon points="160.69 114.02 153.34 129.45 162.09 129.45 164.68 117.45 160.69 114.02" style="fill: rgb(255, 255, 255); stroke: rgb(38, 50, 56); stroke-linecap: round; stroke-linejoin: round; transform-origin: 159.01px 121.735px;" id="elci5batlggkw" class="animable"></polygon><polygon points="157.23 105.79 174.73 105.79 181.54 129.12 164.04 129.12 157.23 105.79" style="fill: rgb(255, 255, 255); stroke: rgb(38, 50, 56); stroke-linecap: round; stroke-linejoin: round; transform-origin: 169.385px 117.455px;" id="eljgtid22vrhc" class="animable"></polygon><polygon points="159.59 108.06 173.69 108.06 179.18 126.86 165.08 126.86 159.59 108.06" style="fill: rgb(255, 255, 255); stroke: rgb(38, 50, 56); stroke-linecap: round; stroke-linejoin: round; transform-origin: 169.385px 117.46px;" id="el44b0y1tvckn" class="animable"></polygon><rect x="148.62" y="158.78" width="44.07" height="4.3" style="fill: rgb(255, 255, 255); stroke: rgb(38, 50, 56); stroke-linecap: round; stroke-linejoin: round; transform-origin: 170.655px 160.93px;" id="el0htkd6ap2ll" class="animable"></rect><rect x="148.62" y="181.73" width="44.07" height="4.3" style="fill: rgb(255, 255, 255); stroke: rgb(38, 50, 56); stroke-linecap: round; stroke-linejoin: round; transform-origin: 170.655px 183.88px;" id="elb2kenqj4zr" class="animable"></rect><rect x="145.55" y="129.43" width="139.58" height="3.86" style="fill: rgb(255, 255, 255); stroke: rgb(38, 50, 56); stroke-linecap: round; stroke-linejoin: round; transform-origin: 215.34px 131.36px;" id="elkk8n057zni" class="animable"></rect><line x1="205.12" y1="118.12" x2="241.06" y2="79.18" style="fill: none; stroke: rgb(38, 50, 56); stroke-linecap: round; stroke-linejoin: round; transform-origin: 223.09px 98.65px;" id="elz113powhvre" class="animable"></line><line x1="216.35" y1="105.01" x2="206.24" y2="84.8" style="fill: none; stroke: rgb(38, 50, 56); stroke-linecap: round; stroke-linejoin: round; transform-origin: 211.295px 94.905px;" id="eluc6vu17" class="animable"></line><line x1="228.33" y1="93.03" x2="227.96" y2="77.69" style="fill: none; stroke: rgb(38, 50, 56); stroke-linecap: round; stroke-linejoin: round; transform-origin: 228.145px 85.36px;" id="el903qfrs3g0o" class="animable"></line><line x1="221.75" y1="100.15" x2="271.01" y2="87.04" style="fill: none; stroke: rgb(38, 50, 56); stroke-linecap: round; stroke-linejoin: round; transform-origin: 246.38px 93.595px;" id="elm9h3597guba" class="animable"></line><path d="M198.48,114.11c.32,6.4,5.42,14.57,11.69,14.57s11.37-8.17,11.69-14.57Z" style="fill: rgb(144, 202, 249); stroke: rgb(38, 50, 56); stroke-linecap: round; stroke-linejoin: round; transform-origin: 210.17px 121.395px;" id="elhj7mdy3h2ge" class="animable"></path><path d="M274,87a3,3,0,1,0-3,3A3,3,0,0,0,274,87Z" style="fill: rgb(144, 202, 249); transform-origin: 271px 87px;" id="eljlmwqbo073h" class="animable"></path><path d="M244.8,78.06a3,3,0,1,0-3,3A3,3,0,0,0,244.8,78.06Z" style="fill: rgb(144, 202, 249); transform-origin: 241.8px 78.06px;" id="elhw1bba8zs2d" class="animable"></path><path d="M230.58,77.69a3,3,0,1,0-3,3A3,3,0,0,0,230.58,77.69Z" style="fill: rgb(144, 202, 249); transform-origin: 227.58px 77.69px;" id="el3x2bs9spnjq" class="animable"></path><path d="M209.24,84.42a3,3,0,1,0-3,3A3,3,0,0,0,209.24,84.42Z" style="fill: rgb(144, 202, 249); transform-origin: 206.24px 84.42px;" id="eldezq1sy9ajr" class="animable"></path></g><g id="freepik--Television--inject-389" class="animable" style="transform-origin: 303.97px 288.5px;"><polygon points="372.92 266.38 351.82 274.62 361.05 274.62 372.59 268.68 383.13 274.62 392.37 274.62 372.92 266.38" style="fill: rgb(38, 50, 56); stroke: rgb(38, 50, 56); stroke-linecap: round; stroke-linejoin: round; transform-origin: 372.095px 270.5px;" id="el2ae5pb3ijme" class="animable"></polygon><polygon points="238.1 266.38 217 274.62 226.23 274.62 237.77 268.68 248.32 274.62 257.55 274.62 238.1 266.38" style="fill: rgb(38, 50, 56); stroke: rgb(38, 50, 56); stroke-linecap: round; stroke-linejoin: round; transform-origin: 237.275px 270.5px;" id="el5bl2j1vjipv" class="animable"></polygon><rect x="211.12" y="160.26" width="185.7" height="108.38" style="fill: rgb(38, 50, 56); stroke: rgb(38, 50, 56); stroke-linecap: round; stroke-linejoin: round; transform-origin: 303.97px 214.45px;" id="ela3dgudadp07" class="animable"></rect><rect x="215.46" y="162.79" width="177.01" height="103.31" style="fill: rgb(38, 50, 56); transform-origin: 303.965px 214.445px;" id="elzrer5yp36r" class="animable"></rect><g style="clip-path: url(&quot;#freepik--clip-path--inject-389&quot;); transform-origin: 303.965px 214.445px;" id="el01ehe7uvzfmy" class="animable"><g id="el86tfwaclz46"><rect x="215.46" y="162.79" width="177.01" height="103.31" style="fill: rgb(255, 255, 255); opacity: 0.3; transform-origin: 303.965px 214.445px;" class="animable"></rect></g><g id="eljgc98tr6jfc"><path d="M392.47,197.15c-28.76-1.18-60.92,19.8-107,45.11-32.72,17.95-56.07,20.85-70,20.11v3.73h177Z" style="fill: rgb(255, 255, 255); opacity: 0.32; transform-origin: 303.97px 231.601px;" class="animable"></path></g></g><rect x="215.46" y="162.79" width="177.01" height="103.31" style="fill: none; stroke: rgb(38, 50, 56); stroke-linecap: round; stroke-linejoin: round; transform-origin: 303.965px 214.445px;" id="elxzxc3jwi2k" class="animable"></rect><rect x="189.89" y="274.77" width="228.16" height="141.97" style="fill: rgb(255, 255, 255); stroke: rgb(38, 50, 56); stroke-linecap: round; stroke-linejoin: round; transform-origin: 303.97px 345.755px;" id="el988vas29snl" class="animable"></rect><rect x="194.31" y="279.11" width="67.54" height="25.53" style="fill: rgb(255, 255, 255); stroke: rgb(38, 50, 56); stroke-linecap: round; stroke-linejoin: round; transform-origin: 228.08px 291.875px;" id="el3gcg3atumd5" class="animable"></rect><rect x="269.83" y="279.11" width="67.54" height="25.53" style="fill: rgb(255, 255, 255); stroke: rgb(38, 50, 56); stroke-linecap: round; stroke-linejoin: round; transform-origin: 303.6px 291.875px;" id="ellxmaym6tvqm" class="animable"></rect><rect x="195.23" y="314.68" width="105.57" height="94.83" style="fill: rgb(255, 255, 255); stroke: rgb(38, 50, 56); stroke-linecap: round; stroke-linejoin: round; transform-origin: 248.015px 362.095px;" id="elq5ki5xh3e9" class="animable"></rect><rect x="290.06" y="349.33" width="6.38" height="18.24" style="fill: rgb(38, 50, 56); stroke: rgb(38, 50, 56); stroke-linecap: round; stroke-linejoin: round; transform-origin: 293.25px 358.45px;" id="elfxgtpvasi7m" class="animable"></rect><rect x="306.67" y="314.68" width="105.57" height="94.83" style="fill: rgb(255, 255, 255); stroke: rgb(38, 50, 56); stroke-linecap: round; stroke-linejoin: round; transform-origin: 359.455px 362.095px;" id="eltzcdbw2t0dh" class="animable"></rect><rect x="311.48" y="349.33" width="6.38" height="18.24" style="fill: rgb(38, 50, 56); stroke: rgb(38, 50, 56); stroke-linecap: round; stroke-linejoin: round; transform-origin: 314.67px 358.45px;" id="elx4r7qx14rj" class="animable"></rect><rect x="218.51" y="290.06" width="19.15" height="3.65" style="fill: rgb(38, 50, 56); stroke: rgb(38, 50, 56); stroke-linecap: round; stroke-linejoin: round; transform-origin: 228.085px 291.885px;" id="el2vbi9b8y6sv" class="animable"></rect><rect x="294.02" y="290.06" width="19.15" height="3.65" style="fill: rgb(38, 50, 56); stroke: rgb(38, 50, 56); stroke-linecap: round; stroke-linejoin: round; transform-origin: 303.595px 291.885px;" id="elzz2kfxnwyu" class="animable"></rect><rect x="346.77" y="279.11" width="67.54" height="25.53" style="fill: rgb(255, 255, 255); stroke: rgb(38, 50, 56); stroke-linecap: round; stroke-linejoin: round; transform-origin: 380.54px 291.875px;" id="el4djcguk58nx" class="animable"></rect><rect x="370.97" y="290.06" width="19.15" height="3.65" style="fill: rgb(38, 50, 56); stroke: rgb(38, 50, 56); stroke-linecap: round; stroke-linejoin: round; transform-origin: 380.545px 291.885px;" id="elw7p9ruz6pf" class="animable"></rect></g><g id="freepik--Couch--inject-389" class="animable" style="transform-origin: 253.97px 348.547px;"><path d="M339.46,304.56s-5.7-20.92-1.9-20.28,20.28,4.44,34.86,1.9,52.6-8.24,53.87-5.07,1.9,26,1.9,26Z" style="fill: rgb(38, 50, 56); stroke: rgb(38, 50, 56); stroke-linecap: round; stroke-linejoin: round; transform-origin: 382.222px 293.642px;" id="elyhmlqg5qr1c" class="animable"></path><path d="M333.76,304.56s-.64-20.92-3.17-20.92S323,288.08,317.91,290s-8.87-3.17-28.52-1.9-29.15,4.44-31.69,4.44S247.56,290,245,291.88s1.86,3.46.61,7.75-2.32,9.61-2.32,9.61l2.34,4.19h88.73Z" style="fill: rgb(38, 50, 56); stroke: rgb(38, 50, 56); stroke-linecap: round; stroke-linejoin: round; transform-origin: 288.825px 298.535px;" id="elx8inzcmyxso" class="animable"></path><path d="M243.32,309.24s-3.36-15.45-7.17-19.89-7-1.9-7-1.9l.64,3.8a180.65,180.65,0,0,1-24.09.63c-11.41-.63-13.31.64-19.64-1.26s-8.88-5.07-12.05-5.07-6.33,3.17-5.07,7.6S169,321,169,321h71l5.07-14" style="fill: rgb(38, 50, 56); stroke: rgb(38, 50, 56); stroke-linecap: round; stroke-linejoin: round; transform-origin: 206.863px 303.275px;" id="elzs1uynfntp" class="animable"></path><rect x="195.37" y="298.08" width="202.4" height="118.83" style="fill: rgb(38, 50, 56); transform-origin: 296.57px 357.495px;" id="elny0312nt7cp" class="animable"></rect><g style="clip-path: url(&quot;#freepik--clip-path-2--inject-389&quot;); transform-origin: 296.57px 357.495px;" id="eli7urse27mf" class="animable"><g id="el4nn8uzu1xxt"><rect x="195.37" y="298.08" width="202.4" height="118.83" style="fill: rgb(255, 255, 255); opacity: 0.3; transform-origin: 296.57px 357.495px;" class="animable"></rect></g></g><rect x="195.37" y="298.08" width="202.4" height="118.83" style="fill: none; stroke: rgb(38, 50, 56); stroke-linecap: round; stroke-linejoin: round; transform-origin: 296.57px 357.495px;" id="elpqdlxi1u98q" class="animable"></rect><path d="M397.77,298.08h28a8.08,8.08,0,0,1,8.08,8.08v103a7.76,7.76,0,0,1-7.76,7.76H397.77a0,0,0,0,1,0,0V298.08A0,0,0,0,1,397.77,298.08Z" style="fill: rgb(38, 50, 56); transform-origin: 415.81px 357.5px;" id="elrguv3upe9kl" class="animable"></path><g style="clip-path: url(&quot;#freepik--clip-path-3--inject-389&quot;); transform-origin: 415.81px 357.5px;" id="elhbc1r9jqybo" class="animable"><g id="elu5kkhvhlag9"><path d="M397.77,298.08h28a8.08,8.08,0,0,1,8.08,8.08v103a7.76,7.76,0,0,1-7.76,7.76H397.77a0,0,0,0,1,0,0V298.08A0,0,0,0,1,397.77,298.08Z" style="fill: rgb(255, 255, 255); opacity: 0.3; transform-origin: 415.81px 357.5px;" class="animable"></path></g></g><path d="M397.77,298.08h28a8.08,8.08,0,0,1,8.08,8.08v103a7.76,7.76,0,0,1-7.76,7.76H397.77a0,0,0,0,1,0,0V298.08A0,0,0,0,1,397.77,298.08Z" style="fill: none; stroke: rgb(38, 50, 56); stroke-linecap: round; stroke-linejoin: round; transform-origin: 415.81px 357.5px;" id="elz0me5i4pvmf" class="animable"></path><rect x="77.41" y="366.59" width="96.06" height="50.2" rx="3.48" style="fill: rgb(38, 50, 56); transform-origin: 125.44px 391.69px;" id="el8ncgx2k0r2i" class="animable"></rect><g style="clip-path: url(&quot;#freepik--clip-path-4--inject-389&quot;); transform-origin: 125.44px 391.69px;" id="eleemsfemf0hi" class="animable"><g id="elu6deahqrz8d"><rect x="77.41" y="366.59" width="96.06" height="50.2" rx="3.48" style="fill: rgb(255, 255, 255); opacity: 0.3; transform-origin: 125.44px 391.69px;" class="animable"></rect></g></g><rect x="77.41" y="366.59" width="96.06" height="50.2" rx="3.48" style="fill: none; stroke: rgb(38, 50, 56); stroke-linecap: round; stroke-linejoin: round; transform-origin: 125.44px 391.69px;" id="elaw3ijdq03vs" class="animable"></rect><rect x="74.09" y="339.04" width="102.69" height="33.12" rx="3.48" style="fill: rgb(38, 50, 56); transform-origin: 125.435px 355.6px;" id="elx2278fsm1s" class="animable"></rect><g style="clip-path: url(&quot;#freepik--clip-path-5--inject-389&quot;); transform-origin: 125.435px 355.6px;" id="ely1utxnqzb1" class="animable"><g id="eltxcg5bm8svc"><rect x="74.09" y="339.04" width="102.69" height="33.12" rx="3.48" style="fill: rgb(255, 255, 255); opacity: 0.3; transform-origin: 125.435px 355.6px;" class="animable"></rect></g></g><rect x="74.09" y="339.04" width="102.69" height="33.12" rx="3.48" style="fill: none; stroke: rgb(38, 50, 56); stroke-linecap: round; stroke-linejoin: round; transform-origin: 125.435px 355.6px;" id="elc5c5ygijjcq" class="animable"></rect><path d="M168.8,298.08h26.61a0,0,0,0,1,0,0V416.91a0,0,0,0,1,0,0H168.8a9.52,9.52,0,0,1-9.52-9.52V307.6A9.52,9.52,0,0,1,168.8,298.08Z" style="fill: rgb(38, 50, 56); transform-origin: 177.345px 357.495px;" id="elfda44tkacoc" class="animable"></path><g style="clip-path: url(&quot;#freepik--clip-path-6--inject-389&quot;); transform-origin: 177.345px 357.495px;" id="elw414s11sfx" class="animable"><g id="els8dhwyiz1uj"><path d="M168.8,298.08h26.61a0,0,0,0,1,0,0V416.91a0,0,0,0,1,0,0H168.8a9.52,9.52,0,0,1-9.52-9.52V307.6A9.52,9.52,0,0,1,168.8,298.08Z" style="fill: rgb(255, 255, 255); opacity: 0.3; transform-origin: 177.345px 357.495px;" class="animable"></path></g></g><path d="M168.8,298.08h26.61a0,0,0,0,1,0,0V416.91a0,0,0,0,1,0,0H168.8a9.52,9.52,0,0,1-9.52-9.52V307.6A9.52,9.52,0,0,1,168.8,298.08Z" style="fill: none; stroke: rgb(38, 50, 56); stroke-linecap: round; stroke-linejoin: round; transform-origin: 177.345px 357.495px;" id="elh7rpswyojk" class="animable"></path></g><g id="freepik--Chair--inject-389" class="animable" style="transform-origin: 157.975px 329.912px;"><polygon points="200.15 416.83 197.16 417 191.32 336.88 197.41 336.54 200.15 416.83" style="fill: rgb(144, 202, 249); stroke: rgb(38, 50, 56); stroke-linecap: round; stroke-linejoin: round; transform-origin: 195.735px 376.77px;" id="elbk9quluavh" class="animable"></polygon><path d="M129.83,335.09s1.43-7.17,4.66-7.53,59.88,0,59.88,0,6.09-.72,6.45,6.09Z" style="fill: rgb(38, 50, 56); stroke: rgb(38, 50, 56); stroke-linecap: round; stroke-linejoin: round; transform-origin: 165.325px 331.245px;" id="elj8jgfj8yx5m" class="animable"></path><rect x="125.17" y="331.5" width="76.01" height="8.96" style="fill: rgb(144, 202, 249); stroke: rgb(38, 50, 56); stroke-linecap: round; stroke-linejoin: round; transform-origin: 163.175px 335.98px;" id="eldmtw07k5419" class="animable"></rect><path d="M120.87,245.09s3.58-1.43,4.66,4.66S137,320,136.64,323.25s-6.09,5.74-6.09,5.74l-11.12-83.9Z" style="fill: rgb(38, 50, 56); stroke: rgb(38, 50, 56); stroke-linecap: round; stroke-linejoin: round; transform-origin: 128.04px 286.967px;" id="elmg9hcs0y8ta" class="animable"></path><path d="M114.77,243.66s10.76,68.84,10,94.65-8.07,78.53-8.07,78.53h2.51s11.46-53.06,13.61-76.37l-12-95.38S116.56,241.15,114.77,243.66Z" style="fill: rgb(144, 202, 249); stroke: rgb(38, 50, 56); stroke-linecap: round; stroke-linejoin: round; transform-origin: 123.795px 329.832px;" id="elh3hmzfua6x" class="animable"></path></g><g id="freepik--Character--inject-389" class="animable animator-active" style="transform-origin: 258.056px 290.798px;"><path d="M302.52,202.72a59.53,59.53,0,0,1-3.89-18.21c-.41-9.81,4.58-19,16.83-19.21s22.64,2.67,23.36,7.88-4.56,7-4.56,7,2.6,9.42,1.94,11-2.37,2.82-2,4.75,3.2,4.85,1.75,6.1-2.87,2.25-2.87,2.25-4.43,8.93-6.44,10.42-5.21.72-5.21.72l-2.38-1s-4.51,2.4-5.84,5.84-3.46,10.63-3.46,10.63-6.08-10.2-10.35-11.32a58.46,58.46,0,0,0-9.14-1.45S301.64,207.55,302.52,202.72Z" style="fill: rgb(255, 255, 255); transform-origin: 314.574px 198.09px;" id="elpzg0u9r3xws" class="animable"></path><g style="clip-path: url(&quot;#freepik--clip-path-7--inject-389&quot;); transform-origin: 308.065px 198.14px;" id="elx0mbo9anbb" class="animable"><path d="M319.09,214.47l2.38,1a8.87,8.87,0,0,0,3.28.08c-2.9-1.8-10.8-6.66-9.06-10.14,1.84-3.67,4.89-7.64,4.59-11s4.59-7.95,5.5-13.45c.67-4-5.45-11.72-8.84-15.64h-1.48c-12.25.24-17.24,9.4-16.83,19.21a59.53,59.53,0,0,0,3.89,18.21c-.88,4.83-12.22,15.45-12.22,15.45a58.46,58.46,0,0,1,9.14,1.45c4.27,1.12,10.35,11.32,10.35,11.32s2.13-7.19,3.46-10.63S319.09,214.47,319.09,214.47Z" style="fill: rgb(144, 202, 249); transform-origin: 308.065px 198.14px;" id="elle5kwydto7c" class="animable"></path><g id="elascdauuxexm"><path d="M319.09,214.47l2.38,1a8.87,8.87,0,0,0,3.28.08c-2.9-1.8-10.8-6.66-9.06-10.14,1.84-3.67,4.89-7.64,4.59-11s4.59-7.95,5.5-13.45c.67-4-5.45-11.72-8.84-15.64h-1.48c-12.25.24-17.24,9.4-16.83,19.21a59.53,59.53,0,0,0,3.89,18.21c-.88,4.83-12.22,15.45-12.22,15.45a58.46,58.46,0,0,1,9.14,1.45c4.27,1.12,10.35,11.32,10.35,11.32s2.13-7.19,3.46-10.63S319.09,214.47,319.09,214.47Z" style="fill: rgb(255, 255, 255); opacity: 0.5; transform-origin: 308.065px 198.14px;" class="animable"></path></g></g><path d="M302.52,202.72a59.53,59.53,0,0,1-3.89-18.21c-.41-9.81,4.58-19,16.83-19.21s22.64,2.67,23.36,7.88-4.56,7-4.56,7,2.6,9.42,1.94,11-2.37,2.82-2,4.75,3.2,4.85,1.75,6.1-2.87,2.25-2.87,2.25-4.43,8.93-6.44,10.42-5.21.72-5.21.72l-2.38-1s-4.51,2.4-5.84,5.84-3.46,10.63-3.46,10.63-6.08-10.2-10.35-11.32a58.46,58.46,0,0,0-9.14-1.45S301.64,207.55,302.52,202.72Z" style="fill: none; stroke: rgb(38, 50, 56); stroke-linecap: round; stroke-linejoin: round; transform-origin: 314.574px 198.09px;" id="elwsi8ttt27m" class="animable"></path><path d="M334.33,180.49c-.05-.18-.07-.29-.07-.29s5.28-1.8,4.56-7-11.12-8.11-23.36-7.88-17.24,9.4-16.83,19.21a59.42,59.42,0,0,0,3.82,18c1.56-.55,4.46-1.57,5.65-1.88a4.29,4.29,0,0,0,2.26-1.2s-5.81-6.38-5-9.86,6.09-5.56,7.58-3.55.25,8.17.25,8.17,1.06.35,1.71-1.24.23-3.24,3-4.41,5.58-2,5.92-3.12-2.88-5.36-1.94-7.2C322.67,176.73,331.39,179.5,334.33,180.49Z" style="fill: rgb(38, 50, 56); stroke: rgb(38, 50, 56); stroke-linecap: round; stroke-linejoin: round; transform-origin: 318.747px 183.919px;" id="elcvp4lk9eh49" class="animable"></path><path d="M333.28,191.33s-2.08-3.1-4.48-1.63" style="fill: none; stroke: rgb(38, 50, 56); stroke-linecap: round; stroke-linejoin: round; transform-origin: 331.04px 190.317px;" id="el9jj8545xw08" class="animable"></path><path d="M331.64,195.64c-.07,1-.55,1.72-1.08,1.69s-.89-.85-.82-1.82.54-1.72,1.07-1.69S331.7,194.67,331.64,195.64Z" style="fill: rgb(38, 50, 56); transform-origin: 330.689px 195.575px;" id="elcikxofr1sqi" class="animable"></path><line x1="329.1" y1="207.99" x2="327.13" y2="207.13" style="fill: none; stroke: rgb(38, 50, 56); stroke-linecap: round; stroke-linejoin: round; transform-origin: 328.115px 207.56px;" id="elstzotvshxa" class="animable"></line><line x1="313.25" y1="220.31" x2="314.64" y2="211.39" style="fill: none; stroke: rgb(38, 50, 56); stroke-linecap: round; stroke-linejoin: round; transform-origin: 313.945px 215.85px;" id="elgxh3ve0afna" class="animable"></line><path d="M311.42,201.36a14.37,14.37,0,0,0,.5,4.8c.7,2,5.23,5.41,5.23,5.41" style="fill: none; stroke: rgb(38, 50, 56); stroke-linecap: round; stroke-linejoin: round; transform-origin: 314.27px 206.465px;" id="elzet8w2r2htc" class="animable"></path><path d="M246.92,357.39s-11,11.31-14.5,12-7.37-3.7-10.85-8.39-15-31.52-17.76-35.92-6.05-9.83-6.05-9.83-11,5-11.58,7.79a15.39,15.39,0,0,1-1.72,4.61s-2.68,1.33-5.5-2.45-2-12.61,1-13.91,11.16-13.24,12.93-15,3.3-4.45,6.77-.93,8,13.2,11.27,18.3,9.23,12.29,13.87,18.65c3.71,5.08,11,11.24,11,11.24Z" style="fill: rgb(255, 255, 255); transform-origin: 212.072px 331.551px;" id="elmz6gqjunma" class="animable"></path><g style="clip-path: url(&quot;#freepik--clip-path-8--inject-389&quot;); transform-origin: 216.592px 332.943px;" id="elcqmrsq4d2lh" class="animable"><path d="M235.81,343.59s-7.26-6.16-11-11.24C220.2,326,214.3,318.8,211,313.7c-2-3.11-4.48-7.92-6.87-12-9-8.35-8.62.45-11.27,7.52-.77,2-.12,4.71,1.39,7.79,2-1,3.54-1.74,3.54-1.74s3.3,5.42,6.05,9.83c1.25,2,4.33,8.66,7.63,15.76.85,1.12,1.67,2.23,2.45,3.32,9,12.55,12.55,24.65,17,23.3s9.41-13.89,9.41-13.89l.32-4Z" style="fill: rgb(144, 202, 249); transform-origin: 216.592px 332.943px;" id="elatkzltdyffp" class="animable"></path><g id="elqa19s4zabjm"><path d="M235.81,343.59s-7.26-6.16-11-11.24C220.2,326,214.3,318.8,211,313.7c-2-3.11-4.48-7.92-6.87-12-9-8.35-8.62.45-11.27,7.52-.77,2-.12,4.71,1.39,7.79,2-1,3.54-1.74,3.54-1.74s3.3,5.42,6.05,9.83c1.25,2,4.33,8.66,7.63,15.76.85,1.12,1.67,2.23,2.45,3.32,9,12.55,12.55,24.65,17,23.3s9.41-13.89,9.41-13.89l.32-4Z" style="fill: rgb(255, 255, 255); opacity: 0.5; transform-origin: 216.592px 332.943px;" class="animable"></path></g></g><path d="M246.92,357.39s-11,11.31-14.5,12-7.37-3.7-10.85-8.39-15-31.52-17.76-35.92-6.05-9.83-6.05-9.83-11,5-11.58,7.79a15.39,15.39,0,0,1-1.72,4.61s-2.68,1.33-5.5-2.45-2-12.61,1-13.91,11.16-13.24,12.93-15,3.3-4.45,6.77-.93,8,13.2,11.27,18.3,9.23,12.29,13.87,18.65c3.71,5.08,11,11.24,11,11.24Z" style="fill: none; stroke: rgb(38, 50, 56); stroke-linecap: round; stroke-linejoin: round; transform-origin: 212.072px 331.551px;" id="el9ngnu35yhv8" class="animable"></path><path d="M298.66,311.58a139,139,0,0,1,19.44,12.69c8.33,6.8,10.92,10.36,10.57,13.26s-20.87,39.38-22.28,44.3-6,17.26-6,17.26,2.12,2,8,6.52,14.7,6.8,14.79,7.74-1.67,2.4-6.08,2.84-10.88-.49-14.48-1.4-8.89.26-13.62.74-5-5.23-5.3-8.39,8.31-19.72,9.92-25.93,4.87-14.83,4.9-20.88,3.94-22.7,3.94-22.7l-18.86-3.83Z" style="fill: rgb(255, 255, 255); transform-origin: 306.15px 363.941px;" id="elrqk5vbf91bq" class="animable"></path><g style="clip-path: url(&quot;#freepik--clip-path-9--inject-389&quot;); transform-origin: 301.84px 368.244px;" id="el47g8i37gk0w" class="animable"><path d="M313.83,344.18s6.28-2.69,6.28-6.72-18.38-8.07-18.38-8.07-3.81-3.64-9.42-8.46l-8.74,12.87,18.86,3.83s-3.92,16.64-3.94,22.7-3.3,14.66-4.9,20.88-10.24,22.78-9.92,25.93.57,8.86,5.3,8.39c1.82-.19,3.72-.47,5.57-.7,1.71-6.7,3.71-22.74,4.95-28.52,1.35-6.28,10.31-22,13.45-29.58S313.83,344.18,313.83,344.18Z" style="fill: rgb(144, 202, 249); transform-origin: 301.84px 368.244px;" id="el4e2xmmf6fwi" class="animable"></path><g id="eldl4wnsyoogt"><path d="M313.83,344.18s6.28-2.69,6.28-6.72-18.38-8.07-18.38-8.07-3.81-3.64-9.42-8.46l-8.74,12.87,18.86,3.83s-3.92,16.64-3.94,22.7-3.3,14.66-4.9,20.88-10.24,22.78-9.92,25.93.57,8.86,5.3,8.39c1.82-.19,3.72-.47,5.57-.7,1.71-6.7,3.71-22.74,4.95-28.52,1.35-6.28,10.31-22,13.45-29.58S313.83,344.18,313.83,344.18Z" style="fill: rgb(255, 255, 255); opacity: 0.5; transform-origin: 301.84px 368.244px;" class="animable"></path></g></g><path d="M298.66,311.58a139,139,0,0,1,19.44,12.69c8.33,6.8,10.92,10.36,10.57,13.26s-20.87,39.38-22.28,44.3-6,17.26-6,17.26,2.12,2,8,6.52,14.7,6.8,14.79,7.74-1.67,2.4-6.08,2.84-10.88-.49-14.48-1.4-8.89.26-13.62.74-5-5.23-5.3-8.39,8.31-19.72,9.92-25.93,4.87-14.83,4.9-20.88,3.94-22.7,3.94-22.7l-18.86-3.83Z" style="fill: none; stroke: rgb(38, 50, 56); stroke-linecap: round; stroke-linejoin: round; transform-origin: 306.15px 363.941px;" id="elfritdjobcqs" class="animable"></path><path d="M293.16,219a26.54,26.54,0,0,0-5.64,3.92c-9,8.07-8.18,16-6.24,19.41,0,0-2.58,9.6-2.09,14.25s-.63,13-1.1,19.76-4.83,14.61-3.39,21.24-.43,29.59-.43,29.59-2.54,5.25-3,8.21a6.61,6.61,0,0,0,0,1.83l-4.16-.29.21-3a1.76,1.76,0,0,0-3.52-.25l-.68,9.74a1.76,1.76,0,1,0,3.52.24l.21-3,5.75.4.11.18-2.5-.11a5.18,5.18,0,0,0,1.77,3.76c1.8,1.48,7.28.78,7.28.78s3.27,0,3.63-1.38a13.27,13.27,0,0,0,.23-2.49l2.58.18-.21,3a1.76,1.76,0,0,0,3.52.25l.68-9.74a1.76,1.76,0,0,0-3.52-.25l-.21,3-2.77-.19c0-1.27,0-2.49.11-3.46a57.16,57.16,0,0,0-.73-9s7.87-31,8.32-37.46a70.34,70.34,0,0,0,0-11.15s6.66-9.86,8.12-15.19a76.45,76.45,0,0,0,1.95-12.37s7.47-5.73,8.09-14.65c.16-2.23.3-4.06.34-5.63A11.07,11.07,0,0,0,293.16,219Z" style="fill: rgb(38, 50, 56); stroke: rgb(38, 50, 56); stroke-linecap: round; stroke-linejoin: round; transform-origin: 286.255px 282.29px;" id="elr7qr2xsfpv9" class="animable"></path><path d="M248.43,299.37a29,29,0,0,0-4.19,9.87c-1,5.33-1.84,8.13-1.84,8.13s-.77,6.62-3.3,10.89-8.23,17.85-8.23,17.85A27.36,27.36,0,0,0,241.79,358a45.09,45.09,0,0,0,16.74,5.93L272.72,329l2.76-.23L299,343.28a92.68,92.68,0,0,1,10.12-11.75,112.08,112.08,0,0,0,8.47-8.69s-15.17-15.54-24.25-21.55c-7.56-5-11.22-7.06-11.22-7.06S258.48,287.36,248.43,299.37Z" style="fill: rgb(38, 50, 56); stroke: rgb(38, 50, 56); stroke-linecap: round; stroke-linejoin: round; transform-origin: 274.23px 328.102px;" id="elfiikkn2vk4" class="animable"></path><path d="M259.73,296.66s-7.41,24.26-8.87,27c-1.22,2.3-12.12,22.36-15.66,28.87a29.93,29.93,0,0,0,6.59,5.44c.87.53,1.73,1,2.6,1.44l16-35.72L267.31,302Z" style="fill: rgb(255, 255, 255); stroke: rgb(38, 50, 56); stroke-linecap: round; stroke-linejoin: round; transform-origin: 251.255px 328.035px;" id="elqgj3ctq2gzi" class="animable"></path><path d="M310.81,231.83s-2.22-14.83-11-17.62-21.75,8-26.66,16.08-11.45,39.42-13.26,45.81-13.32,23.53-13.32,23.53,3.81,7.61,17.24,9.9,17.06.92,17.06.92,7.53-22.3,14.12-31.08,15-24.23,16.48-33.63S310.81,231.83,310.81,231.83Z" style="fill: rgb(144, 202, 249); stroke: rgb(38, 50, 56); stroke-linecap: round; stroke-linejoin: round; transform-origin: 279.281px 262.309px;" id="elv4davymjjc8" class="animable"></path><g id="el34uknbvjn4d"><rect x="262.37" y="337.52" width="20.09" height="3.8" style="fill: rgb(255, 255, 255); stroke: rgb(38, 50, 56); stroke-linecap: round; stroke-linejoin: round; transform-origin: 272.415px 339.42px; transform: rotate(3.99deg);" class="animable"></rect></g><path d="M283.28,346.83h0a1.75,1.75,0,0,0,1.88-1.63l.68-9.74a1.76,1.76,0,0,0-1.63-1.88h0a1.76,1.76,0,0,0-1.88,1.63l-.68,9.74A1.76,1.76,0,0,0,283.28,346.83Z" style="fill: rgb(255, 255, 255); stroke: rgb(38, 50, 56); stroke-linecap: round; stroke-linejoin: round; transform-origin: 283.745px 340.205px;" id="el6bdqjuj2x6" class="animable"></path><path d="M260.92,345.27h0a1.76,1.76,0,0,0,1.88-1.64l.68-9.73a1.77,1.77,0,0,0-1.64-1.88h0a1.76,1.76,0,0,0-1.88,1.63l-.68,9.74A1.77,1.77,0,0,0,260.92,345.27Z" style="fill: rgb(255, 255, 255); stroke: rgb(38, 50, 56); stroke-linecap: round; stroke-linejoin: round; transform-origin: 261.38px 338.645px;" id="elg83quxef0oj" class="animable"></path><path d="M305.52,229.07A11.07,11.07,0,0,0,289.36,219a26.29,26.29,0,0,0-5.64,3.92c-9,8.07-8.18,16-6.25,19.41,0,0-2.57,9.6-2.08,14.25s-.63,13-1.11,19.76-4.82,14.61-3.38,21.24-.43,29.59-.43,29.59-2.55,5.25-3,8.21a9.69,9.69,0,0,0,1.41,5.91l-2.49-.11a5.18,5.18,0,0,0,1.77,3.76c1.8,1.48,7.28.78,7.28.78s3.26,0,3.63-1.38.2-6.78.41-9.75a57.16,57.16,0,0,0-.73-9s7.87-31,8.32-37.46a71,71,0,0,0,0-11.15s6.67-9.86,8.13-15.19a76.45,76.45,0,0,0,1.95-12.37s7.47-5.73,8.09-14.65C305.33,232.47,305.48,230.64,305.52,229.07Z" style="fill: rgb(255, 255, 255); transform-origin: 285.956px 281.822px;" id="el4yzmqcl2vkf" class="animable"></path><g style="clip-path: url(&quot;#freepik--clip-path-10--inject-389&quot;); transform-origin: 281.559px 281.898px;" id="elwwv2ajzj6jb" class="animable"><path d="M291.86,218a11.59,11.59,0,0,0-2.5.91,26.29,26.29,0,0,0-5.64,3.92c-9,8.07-8.18,16-6.25,19.41,0,0-2.57,9.6-2.08,14.25s-.63,13-1.11,19.76-4.82,14.61-3.38,21.24-.43,29.59-.43,29.59-2.55,5.25-3,8.21a9.69,9.69,0,0,0,1.41,5.91l-2.49-.11a5.18,5.18,0,0,0,1.77,3.76c1.8,1.48,7.28.78,7.28.78s3.26,0,3.63-1.38a8.1,8.1,0,0,0,.17-1.39c-1.4-.86-2.87-1.61-3.78-2.16-3.36-2-.67-8.72-.34-14.76s.67-21.13,3-24.81,2.68,5,2.68-3-1-13.08-1-17.11,2-7,5.36-13.74-.67-12.08.34-14.76,8.72-8.72,10.73-18.11A19,19,0,0,0,293.16,219Z" style="fill: rgb(144, 202, 249); transform-origin: 281.559px 281.898px;" id="el33dn6hpega" class="animable"></path><g id="elcu50ni85i3s"><path d="M291.86,218a11.59,11.59,0,0,0-2.5.91,26.29,26.29,0,0,0-5.64,3.92c-9,8.07-8.18,16-6.25,19.41,0,0-2.57,9.6-2.08,14.25s-.63,13-1.11,19.76-4.82,14.61-3.38,21.24-.43,29.59-.43,29.59-2.55,5.25-3,8.21a9.69,9.69,0,0,0,1.41,5.91l-2.49-.11a5.18,5.18,0,0,0,1.77,3.76c1.8,1.48,7.28.78,7.28.78s3.26,0,3.63-1.38a8.1,8.1,0,0,0,.17-1.39c-1.4-.86-2.87-1.61-3.78-2.16-3.36-2-.67-8.72-.34-14.76s.67-21.13,3-24.81,2.68,5,2.68-3-1-13.08-1-17.11,2-7,5.36-13.74-.67-12.08.34-14.76,8.72-8.72,10.73-18.11A19,19,0,0,0,293.16,219Z" style="fill: rgb(255, 255, 255); opacity: 0.5; transform-origin: 281.559px 281.898px;" class="animable"></path></g></g><path d="M305.52,229.07A11.07,11.07,0,0,0,289.36,219a26.29,26.29,0,0,0-5.64,3.92c-9,8.07-8.18,16-6.25,19.41,0,0-2.57,9.6-2.08,14.25s-.63,13-1.11,19.76-4.82,14.61-3.38,21.24-.43,29.59-.43,29.59-2.55,5.25-3,8.21a9.69,9.69,0,0,0,1.41,5.91l-2.49-.11a5.18,5.18,0,0,0,1.77,3.76c1.8,1.48,7.28.78,7.28.78s3.26,0,3.63-1.38.2-6.78.41-9.75a57.16,57.16,0,0,0-.73-9s7.87-31,8.32-37.46a71,71,0,0,0,0-11.15s6.67-9.86,8.13-15.19a76.45,76.45,0,0,0,1.95-12.37s7.47-5.73,8.09-14.65C305.33,232.47,305.48,230.64,305.52,229.07Z" style="fill: none; stroke: rgb(38, 50, 56); stroke-linecap: round; stroke-linejoin: round; transform-origin: 285.956px 281.822px;" id="el0h9jp4p2nxrk" class="animable"></path><line x1="297.09" y1="249.35" x2="289.68" y2="252.13" style="fill: none; stroke: rgb(38, 50, 56); stroke-linecap: round; stroke-linejoin: round; transform-origin: 293.385px 250.74px;" id="elcuudjymfle" class="animable"></line><line x1="277.47" y1="242.28" x2="282.92" y2="230.43" style="fill: none; stroke: rgb(38, 50, 56); stroke-linecap: round; stroke-linejoin: round; transform-origin: 280.195px 236.355px;" id="elxyg20lb43s9" class="animable"></line><path d="M207.46,307.68c-2.6-4.69-5.4-9.89-7.76-12.28-3.47-3.52-5-.8-6.77.93S183,310,180,311.31s-3.85,10.13-1,13.91,5.5,2.45,5.5,2.45a15.39,15.39,0,0,0,1.72-4.61c.59-2.81,11.58-7.79,11.58-7.79a58.25,58.25,0,0,1,3.83-6.63C202.82,306.83,205.4,307.09,207.46,307.68Z" style="fill: rgb(144, 202, 249); stroke: rgb(38, 50, 56); stroke-linecap: round; stroke-linejoin: round; transform-origin: 192.356px 310.792px;" id="elpwzds5bohaa" class="animable"></path><path d="M199.7,295.4c-3.47-3.52-5-.8-6.77.93S183,310,180,311.31s-3.85,10.13-1,13.91a7,7,0,0,0,2.48,2.21c-2.31-3-2.26-6.9-1.7-10.81.61-4.3,3.69-5.23,9.53-11.38a77.65,77.65,0,0,1,10.8-9.44C200,295.66,199.82,295.53,199.7,295.4Z" style="fill: rgb(38, 50, 56); stroke: rgb(38, 50, 56); stroke-linecap: round; stroke-linejoin: round; transform-origin: 188.681px 310.558px;" id="eljdlrgj0cuvj" class="animable"></path><path d="M308.36,405.61c-5.87-4.51-8-6.52-8-6.52s-.4,2.27-5.1,3.06c-3.26.55-6.94-1.12-9.42-2.06-1.55,3-2.33,5.54-2.18,7.05.32,3.16.57,8.86,5.3,8.39s10-1.65,13.62-.74,10.07,1.85,14.48,1.4,6.18-1.89,6.08-2.84S314.23,410.11,308.36,405.61Z" style="fill: rgb(144, 202, 249); stroke: rgb(38, 50, 56); stroke-linecap: round; stroke-linejoin: round; transform-origin: 303.393px 407.698px;" id="el9yww4lco84" class="animable"></path><path d="M323.15,413.35c0-.12-.18-.28-.48-.45-7.64,3.36-14.67-.44-20.13-1.49-6.23-1.19-8.55,1.4-14.73,1.13a18.4,18.4,0,0,1-3.34-.41c.65,2,1.89,3.66,4.5,3.4,4.73-.48,10-1.65,13.62-.74s10.07,1.85,14.48,1.4S323.25,414.3,323.15,413.35Z" style="fill: rgb(38, 50, 56); stroke: rgb(38, 50, 56); stroke-linecap: round; stroke-linejoin: round; transform-origin: 303.812px 413.701px;" id="el5uf35lyfxyp" class="animable"></path><line x1="302.43" y1="337.63" x2="310.27" y2="340.46" style="fill: none; stroke: rgb(38, 50, 56); stroke-linecap: round; stroke-linejoin: round; transform-origin: 306.35px 339.045px;" id="el1p1tjrytu6w" class="animable"></line></g><g id="freepik--Floor--inject-389" class="animable" style="transform-origin: 250.465px 416.88px;"><line x1="53.28" y1="416.88" x2="447.65" y2="416.88" style="fill: none; stroke: rgb(38, 50, 56); stroke-linecap: round; stroke-linejoin: round; stroke-width: 2px; transform-origin: 250.465px 416.88px;" id="elptu1n6m2n4a" class="animable"></line></g><defs>     <filter id="active" height="200%">         <feMorphology in="SourceAlpha" result="DILATED" operator="dilate" radius="2"></feMorphology>                <feFlood flood-color="#32DFEC" flood-opacity="1" result="PINK"></feFlood>        <feComposite in="PINK" in2="DILATED" operator="in" result="OUTLINE"></feComposite>        <feMerge>            <feMergeNode in="OUTLINE"></feMergeNode>            <feMergeNode in="SourceGraphic"></feMergeNode>        </feMerge>    </filter>    <filter id="hover" height="200%">        <feMorphology in="SourceAlpha" result="DILATED" operator="dilate" radius="2"></feMorphology>                <feFlood flood-color="#ff0000" flood-opacity="0.5" result="PINK"></feFlood>        <feComposite in="PINK" in2="DILATED" operator="in" result="OUTLINE"></feComposite>        <feMerge>            <feMergeNode in="OUTLINE"></feMergeNode>            <feMergeNode in="SourceGraphic"></feMergeNode>        </feMerge>            <feColorMatrix type="matrix" values="0   0   0   0   0                0   1   0   0   0                0   0   0   0   0                0   0   0   1   0 "></feColorMatrix>    </filter></defs><defs><clipPath id="freepik--clip-path--inject-389"><rect x="215.46" y="162.79" width="177.01" height="103.31" style="fill:#263238;stroke:#263238;stroke-linecap:round;stroke-linejoin:round"></rect></clipPath><clipPath id="freepik--clip-path-2--inject-389"><rect x="195.37" y="298.08" width="202.4" height="118.83" style="fill:#263238;stroke:#263238;stroke-linecap:round;stroke-linejoin:round"></rect></clipPath><clipPath id="freepik--clip-path-3--inject-389"><path d="M397.77,298.08h28a8.08,8.08,0,0,1,8.08,8.08v103a7.76,7.76,0,0,1-7.76,7.76H397.77a0,0,0,0,1,0,0V298.08A0,0,0,0,1,397.77,298.08Z" style="fill:#263238;stroke:#263238;stroke-linecap:round;stroke-linejoin:round"></path></clipPath><clipPath id="freepik--clip-path-4--inject-389"><rect x="77.41" y="366.59" width="96.06" height="50.2" rx="3.48" style="fill:#263238;stroke:#263238;stroke-linecap:round;stroke-linejoin:round"></rect></clipPath><clipPath id="freepik--clip-path-5--inject-389"><rect x="74.09" y="339.04" width="102.69" height="33.12" rx="3.48" style="fill:#263238;stroke:#263238;stroke-linecap:round;stroke-linejoin:round"></rect></clipPath><clipPath id="freepik--clip-path-6--inject-389"><path d="M168.8,298.08h26.61a0,0,0,0,1,0,0V416.91a0,0,0,0,1,0,0H168.8a9.52,9.52,0,0,1-9.52-9.52V307.6A9.52,9.52,0,0,1,168.8,298.08Z" style="fill:#263238;stroke:#263238;stroke-linecap:round;stroke-linejoin:round"></path></clipPath><clipPath id="freepik--clip-path-7--inject-389"><path d="M302.52,202.72a59.53,59.53,0,0,1-3.89-18.21c-.41-9.81,4.58-19,16.83-19.21s22.64,2.67,23.36,7.88-4.56,7-4.56,7,2.6,9.42,1.94,11-2.37,2.82-2,4.75,3.2,4.85,1.75,6.1-2.87,2.25-2.87,2.25-4.43,8.93-6.44,10.42-5.21.72-5.21.72l-2.38-1s-4.51,2.4-5.84,5.84-3.46,10.63-3.46,10.63-6.08-10.2-10.35-11.32a58.46,58.46,0,0,0-9.14-1.45S301.64,207.55,302.52,202.72Z" style="fill:#fff;stroke:#263238;stroke-linecap:round;stroke-linejoin:round"></path></clipPath><clipPath id="freepik--clip-path-8--inject-389"><path d="M246.92,357.39s-11,11.31-14.5,12-7.37-3.7-10.85-8.39-15-31.52-17.76-35.92-6.05-9.83-6.05-9.83-11,5-11.58,7.79a15.39,15.39,0,0,1-1.72,4.61s-2.68,1.33-5.5-2.45-2-12.61,1-13.91,11.16-13.24,12.93-15,3.3-4.45,6.77-.93,8,13.2,11.27,18.3,9.23,12.29,13.87,18.65c3.71,5.08,11,11.24,11,11.24Z" style="fill:#fff;stroke:#263238;stroke-linecap:round;stroke-linejoin:round"></path></clipPath><clipPath id="freepik--clip-path-9--inject-389"><path d="M298.66,311.58a139,139,0,0,1,19.44,12.69c8.33,6.8,10.92,10.36,10.57,13.26s-20.87,39.38-22.28,44.3-6,17.26-6,17.26,2.12,2,8,6.52,14.7,6.8,14.79,7.74-1.67,2.4-6.08,2.84-10.88-.49-14.48-1.4-8.89.26-13.62.74-5-5.23-5.3-8.39,8.31-19.72,9.92-25.93,4.87-14.83,4.9-20.88,3.94-22.7,3.94-22.7l-18.86-3.83Z" style="fill:#fff;stroke:#263238;stroke-linecap:round;stroke-linejoin:round"></path></clipPath><clipPath id="freepik--clip-path-10--inject-389"><path d="M305.52,229.07A11.07,11.07,0,0,0,289.36,219a26.29,26.29,0,0,0-5.64,3.92c-9,8.07-8.18,16-6.25,19.41,0,0-2.57,9.6-2.08,14.25s-.63,13-1.11,19.76-4.82,14.61-3.38,21.24-.43,29.59-.43,29.59-2.55,5.25-3,8.21a9.69,9.69,0,0,0,1.41,5.91l-2.49-.11a5.18,5.18,0,0,0,1.77,3.76c1.8,1.48,7.28.78,7.28.78s3.26,0,3.63-1.38.2-6.78.41-9.75a57.16,57.16,0,0,0-.73-9s7.87-31,8.32-37.46a71,71,0,0,0,0-11.15s6.67-9.86,8.13-15.19a76.45,76.45,0,0,0,1.95-12.37s7.47-5.73,8.09-14.65C305.33,232.47,305.48,230.64,305.52,229.07Z" style="fill:#fff;stroke:#263238;stroke-linecap:round;stroke-linejoin:round"></path></clipPath></defs></svg>