<?xml version="1.0" standalone="no"?><svg xmlns="http://www.w3.org/2000/svg" viewBox="0 0 1440 320"><path fill="#a2d9ff" fill-opacity="1" d="M0,224L20,224C40,224,80,224,120,218.7C160,213,200,203,240,176C280,149,320,107,360,117.3C400,128,440,192,480,213.3C520,235,560,213,600,176C640,139,680,85,720,53.3C760,21,800,11,840,53.3C880,96,920,192,960,197.3C1000,203,1040,117,1080,112C1120,107,1160,181,1200,202.7C1240,224,1280,192,1320,197.3C1360,203,1400,245,1420,266.7L1440,288L1440,0L1420,0C1400,0,1360,0,1320,0C1280,0,1240,0,1200,0C1160,0,1120,0,1080,0C1040,0,1000,0,960,0C920,0,880,0,840,0C800,0,760,0,720,0C680,0,640,0,600,0C560,0,520,0,480,0C440,0,400,0,360,0C320,0,280,0,240,0C200,0,160,0,120,0C80,0,40,0,20,0L0,0Z"></path></svg>